<?xml version="1.0" encoding="UTF-8" standalone="no"?>
<svg
   viewBox="0 0 36 36"
   version="1.1"
   id="svg3"
   sodipodi:docname="icon.svg"
   inkscape:version="1.3.2 (091e20e, 2023-11-25, custom)"
   xmlns:inkscape="http://www.inkscape.org/namespaces/inkscape"
   xmlns:sodipodi="http://sodipodi.sourceforge.net/DTD/sodipodi-0.dtd"
   xmlns="http://www.w3.org/2000/svg"
   xmlns:svg="http://www.w3.org/2000/svg">
  <defs
     id="defs3" />
  <sodipodi:namedview
     id="namedview3"
     pagecolor="#505050"
     bordercolor="#eeeeee"
     borderopacity="1"
     inkscape:showpageshadow="0"
     inkscape:pageopacity="0"
     inkscape:pagecheckerboard="0"
     inkscape:deskcolor="#505050"
     inkscape:zoom="21.583333"
     inkscape:cx="17.976834"
     inkscape:cy="18"
     inkscape:window-width="1920"
     inkscape:window-height="991"
     inkscape:window-x="-9"
     inkscape:window-y="-9"
     inkscape:window-maximized="1"
     inkscape:current-layer="svg3" />
  <path
     fill="#DD2E44"
     d="M24 7c-3 0-3 1-6 1s-3-1-6-1c-4 0-9 2-9 9 0 11 6 20 10 20 3 0 3-1 5-1s2 1 5 1c4 0 10-9 10-20 0-7.001-5-9-9-9z"
     id="path1" />
  <path
     fill="#77B255"
     d="M19 7s3-4 8-4c4 0 6 2 6 2s-4 3-7 3-7-1-7-1z"
     id="path2" />
  <path
     fill="#662113"
     d="M18 10c-.552 0-1-.448-1-1 0-3.441 1.2-6.615 3.293-8.707.391-.391 1.023-.391 1.414 0s.391 1.024 0 1.414C19.986 3.427 19 6.085 19 9c0 .552-.448 1-1 1z"
     id="path3"
     style="fill:#77b255;fill-opacity:1" />
</svg>
